<mxfile host="app.diagrams.net" agent="Mozilla/5.0 (X11; Linux x86_64) AppleWebKit/537.36 (KHTML, like Gecko) Chrome/129.0.0.0 Safari/537.36" version="24.7.17">
  <diagram id="C5RBs43oDa-KdzZeNtuy" name="Page-1">
    <mxGraphModel dx="1364" dy="759" grid="1" gridSize="10" guides="1" tooltips="1" connect="1" arrows="1" fold="1" page="1" pageScale="1" pageWidth="827" pageHeight="1169" math="0" shadow="0">
      <root>
        <mxCell id="WIyWlLk6GJQsqaUBKTNV-0" />
        <mxCell id="WIyWlLk6GJQsqaUBKTNV-1" parent="WIyWlLk6GJQsqaUBKTNV-0" />
        <mxCell id="Hi60w9y83RW8YI2SUdH2-16" value="" style="edgeStyle=orthogonalEdgeStyle;rounded=0;orthogonalLoop=1;jettySize=auto;html=1;fontFamily=Helvetica;fontSize=12;fontColor=default;" parent="WIyWlLk6GJQsqaUBKTNV-1" source="Hi60w9y83RW8YI2SUdH2-1" target="Hi60w9y83RW8YI2SUdH2-15" edge="1">
          <mxGeometry relative="1" as="geometry" />
        </mxCell>
        <mxCell id="Hi60w9y83RW8YI2SUdH2-1" value="" style="ellipse;whiteSpace=wrap;html=1;aspect=fixed;" parent="WIyWlLk6GJQsqaUBKTNV-1" vertex="1">
          <mxGeometry x="550" y="130" width="40" height="40" as="geometry" />
        </mxCell>
        <mxCell id="Hi60w9y83RW8YI2SUdH2-18" value="" style="edgeStyle=orthogonalEdgeStyle;rounded=0;orthogonalLoop=1;jettySize=auto;html=1;fontFamily=Helvetica;fontSize=12;fontColor=default;" parent="WIyWlLk6GJQsqaUBKTNV-1" source="Hi60w9y83RW8YI2SUdH2-15" target="Hi60w9y83RW8YI2SUdH2-17" edge="1">
          <mxGeometry relative="1" as="geometry" />
        </mxCell>
        <mxCell id="Hi60w9y83RW8YI2SUdH2-15" value="Variable declaration,&lt;div style=&quot;font-size: 13px;&quot;&gt;Function declaration&lt;br style=&quot;font-size: 13px;&quot;&gt;&lt;/div&gt;" style="shape=hexagon;perimeter=hexagonPerimeter2;whiteSpace=wrap;html=1;fixedSize=1;fontSize=13;" parent="WIyWlLk6GJQsqaUBKTNV-1" vertex="1">
          <mxGeometry x="500" y="190" width="140" height="60" as="geometry" />
        </mxCell>
        <mxCell id="Hi60w9y83RW8YI2SUdH2-20" value="" style="edgeStyle=orthogonalEdgeStyle;rounded=0;orthogonalLoop=1;jettySize=auto;html=1;fontFamily=Helvetica;fontSize=14;fontColor=default;" parent="WIyWlLk6GJQsqaUBKTNV-1" source="Hi60w9y83RW8YI2SUdH2-17" target="Hi60w9y83RW8YI2SUdH2-19" edge="1">
          <mxGeometry relative="1" as="geometry" />
        </mxCell>
        <mxCell id="Hi60w9y83RW8YI2SUdH2-17" value="call_button_pushed()" style="shape=process;whiteSpace=wrap;html=1;backgroundOutline=1;fontSize=14;" parent="WIyWlLk6GJQsqaUBKTNV-1" vertex="1">
          <mxGeometry x="482.5" y="280" width="175" height="30" as="geometry" />
        </mxCell>
        <mxCell id="Hi60w9y83RW8YI2SUdH2-22" value="" style="edgeStyle=orthogonalEdgeStyle;rounded=0;orthogonalLoop=1;jettySize=auto;html=1;fontFamily=Helvetica;fontSize=14;fontColor=default;" parent="WIyWlLk6GJQsqaUBKTNV-1" source="Hi60w9y83RW8YI2SUdH2-19" target="Hi60w9y83RW8YI2SUdH2-21" edge="1">
          <mxGeometry relative="1" as="geometry" />
        </mxCell>
        <mxCell id="Hi60w9y83RW8YI2SUdH2-19" value="move_elevator()" style="shape=process;whiteSpace=wrap;html=1;backgroundOutline=1;fontSize=14;" parent="WIyWlLk6GJQsqaUBKTNV-1" vertex="1">
          <mxGeometry x="482.5" y="330" width="175" height="30" as="geometry" />
        </mxCell>
        <mxCell id="Hi60w9y83RW8YI2SUdH2-24" value="" style="edgeStyle=orthogonalEdgeStyle;rounded=0;orthogonalLoop=1;jettySize=auto;html=1;fontFamily=Helvetica;fontSize=14;fontColor=default;" parent="WIyWlLk6GJQsqaUBKTNV-1" source="Hi60w9y83RW8YI2SUdH2-21" target="Hi60w9y83RW8YI2SUdH2-23" edge="1">
          <mxGeometry relative="1" as="geometry" />
        </mxCell>
        <mxCell id="Hi60w9y83RW8YI2SUdH2-21" value="elevator_pos_LED()" style="shape=process;whiteSpace=wrap;html=1;backgroundOutline=1;fontSize=14;" parent="WIyWlLk6GJQsqaUBKTNV-1" vertex="1">
          <mxGeometry x="482.5" y="380" width="175" height="30" as="geometry" />
        </mxCell>
        <mxCell id="Hi60w9y83RW8YI2SUdH2-26" value="" style="edgeStyle=orthogonalEdgeStyle;rounded=0;orthogonalLoop=1;jettySize=auto;html=1;fontFamily=Helvetica;fontSize=14;fontColor=default;" parent="WIyWlLk6GJQsqaUBKTNV-1" source="Hi60w9y83RW8YI2SUdH2-23" target="Hi60w9y83RW8YI2SUdH2-25" edge="1">
          <mxGeometry relative="1" as="geometry" />
        </mxCell>
        <mxCell id="Hi60w9y83RW8YI2SUdH2-23" value="call_button_led()" style="shape=process;whiteSpace=wrap;html=1;backgroundOutline=1;fontSize=14;" parent="WIyWlLk6GJQsqaUBKTNV-1" vertex="1">
          <mxGeometry x="482.5" y="430" width="175" height="30" as="geometry" />
        </mxCell>
        <mxCell id="Hi60w9y83RW8YI2SUdH2-28" value="" style="edgeStyle=orthogonalEdgeStyle;rounded=0;orthogonalLoop=1;jettySize=auto;html=1;fontFamily=Helvetica;fontSize=14;fontColor=default;" parent="WIyWlLk6GJQsqaUBKTNV-1" source="Hi60w9y83RW8YI2SUdH2-25" target="Hi60w9y83RW8YI2SUdH2-27" edge="1">
          <mxGeometry relative="1" as="geometry" />
        </mxCell>
        <mxCell id="Hi60w9y83RW8YI2SUdH2-25" value="half_time += 0.02&lt;div style=&quot;font-size: 14px;&quot;&gt;delay(delay_time)&lt;/div&gt;" style="whiteSpace=wrap;html=1;fontSize=14;" parent="WIyWlLk6GJQsqaUBKTNV-1" vertex="1">
          <mxGeometry x="510" y="480" width="120" height="40" as="geometry" />
        </mxCell>
        <mxCell id="Hi60w9y83RW8YI2SUdH2-29" style="edgeStyle=orthogonalEdgeStyle;rounded=0;orthogonalLoop=1;jettySize=auto;html=1;fontFamily=Helvetica;fontSize=12;fontColor=default;entryX=0.5;entryY=0;entryDx=0;entryDy=0;" parent="WIyWlLk6GJQsqaUBKTNV-1" source="Hi60w9y83RW8YI2SUdH2-27" target="Hi60w9y83RW8YI2SUdH2-17" edge="1">
          <mxGeometry relative="1" as="geometry">
            <mxPoint x="570" y="290" as="targetPoint" />
            <Array as="points">
              <mxPoint x="570" y="590" />
              <mxPoint x="450" y="590" />
              <mxPoint x="450" y="260" />
              <mxPoint x="570" y="260" />
            </Array>
          </mxGeometry>
        </mxCell>
        <mxCell id="Hi60w9y83RW8YI2SUdH2-44" value="main()" style="edgeLabel;html=1;align=center;verticalAlign=middle;resizable=0;points=[];strokeColor=default;fontFamily=Helvetica;fontSize=12;fontColor=default;fillColor=default;" parent="Hi60w9y83RW8YI2SUdH2-29" vertex="1" connectable="0">
          <mxGeometry x="0.9372" y="2" relative="1" as="geometry">
            <mxPoint as="offset" />
          </mxGeometry>
        </mxCell>
        <mxCell id="Hi60w9y83RW8YI2SUdH2-27" value="call_sort" style="shape=process;whiteSpace=wrap;html=1;backgroundOutline=1;fontSize=14;" parent="WIyWlLk6GJQsqaUBKTNV-1" vertex="1">
          <mxGeometry x="510" y="544.5" width="120" height="25.5" as="geometry" />
        </mxCell>
        <mxCell id="Hi60w9y83RW8YI2SUdH2-37" value="" style="edgeStyle=orthogonalEdgeStyle;rounded=0;orthogonalLoop=1;jettySize=auto;html=1;fontFamily=Helvetica;fontSize=12;fontColor=default;" parent="WIyWlLk6GJQsqaUBKTNV-1" source="Hi60w9y83RW8YI2SUdH2-30" target="Hi60w9y83RW8YI2SUdH2-36" edge="1">
          <mxGeometry relative="1" as="geometry" />
        </mxCell>
        <mxCell id="Hi60w9y83RW8YI2SUdH2-30" value="move_elevator" style="shape=process;whiteSpace=wrap;html=1;backgroundOutline=1;strokeColor=default;align=center;verticalAlign=middle;fontFamily=Helvetica;fontSize=14;fontColor=default;fillColor=default;" parent="WIyWlLk6GJQsqaUBKTNV-1" vertex="1">
          <mxGeometry x="722.74" y="180" width="150" height="30" as="geometry" />
        </mxCell>
        <mxCell id="Hi60w9y83RW8YI2SUdH2-39" value="" style="edgeStyle=orthogonalEdgeStyle;rounded=0;orthogonalLoop=1;jettySize=auto;html=1;fontFamily=Helvetica;fontSize=12;fontColor=default;" parent="WIyWlLk6GJQsqaUBKTNV-1" source="Hi60w9y83RW8YI2SUdH2-36" target="Hi60w9y83RW8YI2SUdH2-38" edge="1">
          <mxGeometry relative="1" as="geometry" />
        </mxCell>
        <mxCell id="Hi60w9y83RW8YI2SUdH2-40" value="True" style="edgeLabel;html=1;align=center;verticalAlign=middle;resizable=0;points=[];strokeColor=default;fontFamily=Helvetica;fontSize=12;fontColor=default;fillColor=default;" parent="Hi60w9y83RW8YI2SUdH2-39" vertex="1" connectable="0">
          <mxGeometry x="-0.372" y="-1" relative="1" as="geometry">
            <mxPoint as="offset" />
          </mxGeometry>
        </mxCell>
        <mxCell id="Hi60w9y83RW8YI2SUdH2-42" value="" style="edgeStyle=orthogonalEdgeStyle;rounded=0;orthogonalLoop=1;jettySize=auto;html=1;fontFamily=Helvetica;fontSize=12;fontColor=default;" parent="WIyWlLk6GJQsqaUBKTNV-1" source="Hi60w9y83RW8YI2SUdH2-36" target="Hi60w9y83RW8YI2SUdH2-41" edge="1">
          <mxGeometry relative="1" as="geometry" />
        </mxCell>
        <mxCell id="Hi60w9y83RW8YI2SUdH2-43" value="False" style="edgeLabel;html=1;align=center;verticalAlign=middle;resizable=0;points=[];strokeColor=default;fontFamily=Helvetica;fontSize=12;fontColor=default;fillColor=default;" parent="Hi60w9y83RW8YI2SUdH2-42" vertex="1" connectable="0">
          <mxGeometry x="-0.3201" y="2" relative="1" as="geometry">
            <mxPoint x="6" y="2" as="offset" />
          </mxGeometry>
        </mxCell>
        <mxCell id="Hi60w9y83RW8YI2SUdH2-36" value="half_time &amp;gt;= 1.0" style="rhombus;whiteSpace=wrap;html=1;fontSize=14;" parent="WIyWlLk6GJQsqaUBKTNV-1" vertex="1">
          <mxGeometry x="720.24" y="230" width="155" height="60" as="geometry" />
        </mxCell>
        <mxCell id="Hi60w9y83RW8YI2SUdH2-49" value="" style="edgeStyle=orthogonalEdgeStyle;rounded=0;orthogonalLoop=1;jettySize=auto;html=1;fontFamily=Helvetica;fontSize=12;fontColor=default;" parent="WIyWlLk6GJQsqaUBKTNV-1" source="Hi60w9y83RW8YI2SUdH2-38" target="Hi60w9y83RW8YI2SUdH2-48" edge="1">
          <mxGeometry relative="1" as="geometry" />
        </mxCell>
        <mxCell id="Hi60w9y83RW8YI2SUdH2-38" value="elevator position move" style="whiteSpace=wrap;html=1;fontSize=14;" parent="WIyWlLk6GJQsqaUBKTNV-1" vertex="1">
          <mxGeometry x="714.3" y="320" width="166.87" height="40" as="geometry" />
        </mxCell>
        <mxCell id="Hi60w9y83RW8YI2SUdH2-41" value="main()" style="whiteSpace=wrap;html=1;fontSize=14;" parent="WIyWlLk6GJQsqaUBKTNV-1" vertex="1">
          <mxGeometry x="950.24" y="240" width="67.5" height="40" as="geometry" />
        </mxCell>
        <mxCell id="Hi60w9y83RW8YI2SUdH2-51" value="" style="edgeStyle=orthogonalEdgeStyle;rounded=0;orthogonalLoop=1;jettySize=auto;html=1;fontFamily=Helvetica;fontSize=12;fontColor=default;" parent="WIyWlLk6GJQsqaUBKTNV-1" source="Hi60w9y83RW8YI2SUdH2-48" target="Hi60w9y83RW8YI2SUdH2-50" edge="1">
          <mxGeometry relative="1" as="geometry" />
        </mxCell>
        <mxCell id="Hi60w9y83RW8YI2SUdH2-52" value="True" style="edgeLabel;html=1;align=center;verticalAlign=middle;resizable=0;points=[];strokeColor=default;fontFamily=Helvetica;fontSize=12;fontColor=default;fillColor=default;" parent="Hi60w9y83RW8YI2SUdH2-51" vertex="1" connectable="0">
          <mxGeometry x="-0.2295" y="1" relative="1" as="geometry">
            <mxPoint y="3" as="offset" />
          </mxGeometry>
        </mxCell>
        <mxCell id="Hi60w9y83RW8YI2SUdH2-53" style="edgeStyle=orthogonalEdgeStyle;rounded=0;orthogonalLoop=1;jettySize=auto;html=1;exitX=1;exitY=0.5;exitDx=0;exitDy=0;entryX=1;entryY=0.5;entryDx=0;entryDy=0;fontFamily=Helvetica;fontSize=12;fontColor=default;" parent="WIyWlLk6GJQsqaUBKTNV-1" source="Hi60w9y83RW8YI2SUdH2-48" target="Hi60w9y83RW8YI2SUdH2-38" edge="1">
          <mxGeometry relative="1" as="geometry" />
        </mxCell>
        <mxCell id="Hi60w9y83RW8YI2SUdH2-54" value="False" style="edgeLabel;html=1;align=center;verticalAlign=middle;resizable=0;points=[];strokeColor=default;fontFamily=Helvetica;fontSize=12;fontColor=default;fillColor=default;" parent="Hi60w9y83RW8YI2SUdH2-53" vertex="1" connectable="0">
          <mxGeometry x="-0.0205" y="1" relative="1" as="geometry">
            <mxPoint as="offset" />
          </mxGeometry>
        </mxCell>
        <mxCell id="Hi60w9y83RW8YI2SUdH2-48" value="elevator now position&amp;nbsp;&lt;div style=&quot;font-size: 12px;&quot;&gt;== Goal&lt;/div&gt;" style="rhombus;whiteSpace=wrap;html=1;fontSize=12;" parent="WIyWlLk6GJQsqaUBKTNV-1" vertex="1">
          <mxGeometry x="710" y="390" width="175.47" height="50" as="geometry" />
        </mxCell>
        <mxCell id="Hi60w9y83RW8YI2SUdH2-50" value="Goal = new Goal" style="whiteSpace=wrap;html=1;" parent="WIyWlLk6GJQsqaUBKTNV-1" vertex="1">
          <mxGeometry x="737.735" y="470" width="120" height="60" as="geometry" />
        </mxCell>
      </root>
    </mxGraphModel>
  </diagram>
</mxfile>
